<svg width="56" height="56" viewBox="0 0 56 56" fill="none" xmlns="http://www.w3.org/2000/svg">
<path fill-rule="evenodd" clip-rule="evenodd" d="M28 0C12.53 0 0 12.8325 0 28.6761C0 41.3652 8.015 52.0829 19.145 55.8825C20.545 56.1334 21.07 55.2731 21.07 54.5204C21.07 53.8393 21.035 51.5811 21.035 49.1794C14 50.5057 12.18 47.423 11.62 45.81C11.305 44.9856 9.94 42.4406 8.75 41.7595C7.77 41.2218 6.37 39.8956 8.715 39.8597C10.92 39.8239 12.495 41.9387 13.02 42.799C15.54 47.1363 19.565 45.9175 21.175 45.1648C21.42 43.3008 22.155 42.0463 22.96 41.3294C16.73 40.6125 10.22 38.1392 10.22 27.1706C10.22 24.052 11.305 21.4712 13.09 19.4639C12.81 18.747 11.83 15.8077 13.37 11.8647C13.37 11.8647 15.715 11.112 21.07 14.804C23.31 14.1588 25.69 13.8362 28.07 13.8362C30.45 13.8362 32.83 14.1588 35.07 14.804C40.425 11.0761 42.77 11.8647 42.77 11.8647C44.31 15.8077 43.33 18.747 43.05 19.4639C44.835 21.4712 45.92 24.0162 45.92 27.1706C45.92 38.175 39.375 40.6125 33.145 41.3294C34.16 42.2255 35.035 43.9461 35.035 46.6344C35.035 50.4699 35 53.5525 35 54.5204C35 55.2731 35.525 56.1692 36.925 55.8825C47.985 52.0829 56 41.3294 56 28.6761C56 12.8325 43.47 0 28 0Z" fill="#18181B" fill-opacity="0.9"/>
</svg>
