<svg width="240" height="69" viewBox="0 0 240 69" fill="none" xmlns="http://www.w3.org/2000/svg">
<path d="M28.8115 20.3457C28.8115 21.9505 28.2581 23.1403 27.1514 23.915C26.0999 24.6898 24.9102 25.4368 23.582 26.1562C22.2539 26.8203 21.0365 27.6227 19.9297 28.5635C18.8783 29.5042 18.3525 30.9154 18.3525 32.7969C18.3525 33.793 18.5739 34.6507 19.0166 35.3701C19.5146 36.0895 20.0957 36.7536 20.7598 37.3623C21.4792 37.9157 22.2539 38.4967 23.084 39.1055C23.9141 39.7142 24.6611 40.4059 25.3252 41.1807C26.0446 41.9554 26.6257 42.8962 27.0684 44.0029C27.5664 45.1097 27.8154 46.4655 27.8154 48.0703C27.8154 50.3945 27.2067 52.6911 25.9893 54.96C24.8271 57.1735 23.3053 59.1657 21.4238 60.9365C19.5977 62.652 17.5225 64.0355 15.1982 65.0869C12.874 66.1383 10.5775 66.6641 8.30859 66.6641C7.36784 66.6641 6.42708 66.5811 5.48633 66.415C4.54557 66.3044 3.68783 66.0553 2.91309 65.668C2.19368 65.2806 1.58496 64.7549 1.08691 64.0908C0.588867 63.3714 0.339844 62.4583 0.339844 61.3516C0.339844 59.8021 0.644206 58.6123 1.25293 57.7822C1.86165 56.8968 2.63639 56.2051 3.57715 55.707C4.5179 55.209 5.514 54.8216 6.56543 54.5449C7.6722 54.2682 8.69596 53.9362 9.63672 53.5488C10.5775 53.1061 11.3522 52.5527 11.9609 51.8887C12.5697 51.2246 12.874 50.2839 12.874 49.0664C12.874 47.9043 12.4036 46.7145 11.4629 45.4971C10.5775 44.2243 9.58138 42.8962 8.47461 41.5127C7.36784 40.0739 6.34408 38.5521 5.40332 36.9473C4.5179 35.3424 4.0752 33.5716 4.0752 31.6348C4.0752 29.2552 4.54557 27.0693 5.48633 25.0771C6.48242 23.0296 7.78288 21.2588 9.3877 19.7646C11.0479 18.2705 12.9294 17.1084 15.0322 16.2783C17.1351 15.3929 19.3486 14.9502 21.6729 14.9502C22.5583 14.9502 23.416 15.0332 24.2461 15.1992C25.1315 15.3652 25.9062 15.6696 26.5703 16.1123C27.2344 16.4997 27.7601 17.0531 28.1475 17.7725C28.5902 18.4365 28.8115 19.2943 28.8115 20.3457ZM69.8174 44.501C69.8174 45.4417 69.7897 46.8529 69.7344 48.7344C69.7344 50.5605 69.6514 52.4974 69.4854 54.5449C69.3747 56.5371 69.2087 58.4463 68.9873 60.2725C68.766 62.0433 68.4893 63.3438 68.1572 64.1738C67.7145 65.2253 67.1335 66.1383 66.4141 66.9131C65.6947 67.6878 64.7262 68.0752 63.5088 68.0752C61.6273 68.0752 60.2715 67.3281 59.4414 65.834C58.6113 64.3398 58.0579 62.486 57.7812 60.2725C57.5046 58.0589 57.3939 55.6517 57.4492 53.0508C57.5046 50.4499 57.4769 48.0426 57.3662 45.8291C57.2555 43.6156 56.9512 41.7617 56.4531 40.2676C55.9551 38.7734 55.042 38.0264 53.7139 38.0264C51.8877 38.0264 50.4766 38.3307 49.4805 38.9395C48.5397 39.4928 47.848 40.2399 47.4053 41.1807C47.0179 42.1214 46.7689 43.2005 46.6582 44.418C46.6029 45.6354 46.5199 46.9082 46.4092 48.2363C46.2985 49.5091 46.2155 51.2246 46.1602 53.3828C46.1048 55.541 45.8558 57.6715 45.4131 59.7744C44.9704 61.8773 44.2233 63.7035 43.1719 65.2529C42.1758 66.7471 40.6816 67.4941 38.6895 67.4941C37.472 67.4941 36.4759 67.0238 35.7012 66.083C34.9818 65.1423 34.4007 63.9248 33.958 62.4307C33.5153 60.9365 33.1833 59.2764 32.9619 57.4502C32.7959 55.624 32.6852 53.8532 32.6299 52.1377C32.6299 50.3669 32.6299 48.762 32.6299 47.3232C32.6852 45.8844 32.7129 44.8053 32.7129 44.0859C32.7129 42.9792 32.7406 41.153 32.7959 38.6074C32.9066 36.0618 33.1003 33.2396 33.377 30.1406C33.6536 26.9863 34.0133 23.749 34.4561 20.4287C34.8988 17.1084 35.4798 14.0924 36.1992 11.3809C36.9186 8.61393 37.7764 6.37272 38.7725 4.65723C39.8239 2.94173 41.0413 2.11165 42.4248 2.16699C43.3102 2.22233 44.0573 2.6097 44.666 3.3291C45.3301 4.0485 45.8558 4.98926 46.2432 6.15137C46.6859 7.25814 47.0456 8.47559 47.3223 9.80371C47.599 11.1318 47.7926 12.46 47.9033 13.7881C48.0693 15.0609 48.1523 16.2507 48.1523 17.3574C48.2077 18.4642 48.2354 19.3219 48.2354 19.9307C48.2354 21.3695 48.2077 22.8083 48.1523 24.2471C48.097 25.6859 48.014 27.1247 47.9033 28.5635C49.1761 26.848 50.8639 25.4368 52.9668 24.3301C55.125 23.2233 57.2832 22.6699 59.4414 22.6699C62.2083 22.6699 64.2835 23.4447 65.667 24.9941C67.1058 26.4883 68.1296 28.3698 68.7383 30.6387C69.347 32.8522 69.679 35.2318 69.7344 37.7773C69.7897 40.2676 69.8174 42.5088 69.8174 44.501ZM112.068 42.2598C112.068 45.3034 111.764 48.3193 111.155 51.3076C110.547 54.2959 109.523 56.9798 108.084 59.3594C106.645 61.6836 104.708 63.5651 102.273 65.0039C99.8939 66.4427 96.9056 67.1621 93.3086 67.1621C89.7669 67.1621 86.8063 66.4704 84.4268 65.0869C82.0472 63.6481 80.138 61.7666 78.6992 59.4424C77.3158 57.1182 76.3197 54.4896 75.7109 51.5566C75.1576 48.6237 74.8809 45.6354 74.8809 42.5918C74.8809 39.2715 75.2682 35.9788 76.043 32.7139C76.209 31.8285 76.5133 30.611 76.9561 29.0615C77.4541 27.4567 78.0628 25.9072 78.7822 24.4131C79.557 22.8636 80.4147 21.5355 81.3555 20.4287C82.3516 19.3219 83.4307 18.7686 84.5928 18.7686C85.6995 18.7686 86.585 19.0729 87.249 19.6816C87.9131 20.2904 88.4388 21.0651 88.8262 22.0059C89.2135 22.8913 89.4626 23.8597 89.5732 24.9111C89.6839 25.9072 89.7393 26.8203 89.7393 27.6504C89.7393 28.9232 89.6286 30.1683 89.4072 31.3857C89.2412 32.6032 89.0475 33.8206 88.8262 35.0381C88.6048 36.6982 88.3835 38.3584 88.1621 40.0186C87.9961 41.6787 87.9131 43.3389 87.9131 44.999C87.9131 45.8291 87.9408 46.7699 87.9961 47.8213C88.1068 48.8174 88.3281 49.7858 88.6602 50.7266C88.9922 51.6673 89.4626 52.4697 90.0713 53.1338C90.68 53.7425 91.5378 54.0469 92.6445 54.0469C94.0833 54.0469 95.2178 53.6595 96.0479 52.8848C96.9333 52.11 97.5697 51.1416 97.957 49.9795C98.3997 48.8174 98.6764 47.5723 98.7871 46.2441C98.8978 44.916 98.9531 43.6986 98.9531 42.5918C98.9531 40.1569 98.7871 37.7773 98.4551 35.4531C98.123 33.0736 97.8187 30.6663 97.542 28.2314C97.4867 27.9548 97.459 27.5674 97.459 27.0693C97.459 26.2393 97.5973 25.4092 97.874 24.5791C98.1507 23.749 98.5381 23.002 99.0361 22.3379C99.5342 21.6738 100.143 21.1481 100.862 20.7607C101.582 20.318 102.384 20.0967 103.27 20.0967C104.487 20.0967 105.566 20.5394 106.507 21.4248C107.448 22.2549 108.222 23.3617 108.831 24.7451C109.495 26.0732 110.021 27.5951 110.408 29.3105C110.851 30.9707 111.183 32.6309 111.404 34.291C111.681 35.8958 111.847 37.4176 111.902 38.8564C112.013 40.2952 112.068 41.4297 112.068 42.2598ZM151.912 16.3613C151.912 17.4128 151.801 18.4365 151.58 19.4326C151.414 20.3734 151.082 21.2035 150.584 21.9229C150.086 22.6423 149.422 23.2233 148.592 23.666C147.762 24.0534 146.738 24.2471 145.521 24.2471C144.137 24.2471 143.113 23.9704 142.449 23.417C141.785 22.8636 141.315 22.1995 141.038 21.4248C140.817 20.5947 140.706 19.7093 140.706 18.7686C140.706 17.8278 140.651 16.9701 140.54 16.1953C140.485 15.3652 140.291 14.6735 139.959 14.1201C139.627 13.5667 139.018 13.29 138.133 13.29C137.303 13.29 136.611 13.9264 136.058 15.1992C135.56 16.472 135.145 17.9385 134.812 19.5986C134.48 21.2588 134.259 22.8913 134.148 24.4961C134.038 26.0456 133.982 27.097 133.982 27.6504C134.702 27.5397 135.394 27.4567 136.058 27.4014C136.722 27.2907 137.441 27.2354 138.216 27.2354C138.991 27.2354 139.793 27.3184 140.623 27.4844C141.453 27.6504 142.228 27.9271 142.947 28.3145C143.667 28.6465 144.248 29.1445 144.69 29.8086C145.133 30.4173 145.354 31.1921 145.354 32.1328C145.354 33.1289 144.912 34.0143 144.026 34.7891C143.196 35.5638 142.173 36.2279 140.955 36.7812C139.793 37.2793 138.603 37.6943 137.386 38.0264C136.168 38.3584 135.2 38.5798 134.48 38.6904C134.646 42.5088 134.729 46.3548 134.729 50.2285C134.729 53.8809 134.646 57.4779 134.48 61.0195C134.37 62.735 133.761 64.1462 132.654 65.2529C131.603 66.3597 130.219 66.9131 128.504 66.9131C127.563 66.9131 126.761 66.7194 126.097 66.332C125.433 66 124.879 65.5296 124.437 64.9209C123.994 64.3122 123.634 63.6204 123.357 62.8457C123.136 62.071 122.998 61.2686 122.942 60.4385C122.666 57.1182 122.444 53.7979 122.278 50.4775C122.112 47.1019 122.057 43.7262 122.112 40.3506C121.725 40.4059 121.338 40.4336 120.95 40.4336C120.618 40.4336 120.258 40.4336 119.871 40.4336C119.207 40.4336 118.405 40.3506 117.464 40.1846C116.523 40.0186 115.61 39.7419 114.725 39.3545C113.895 38.9118 113.175 38.3861 112.566 37.7773C111.958 37.1686 111.653 36.3939 111.653 35.4531C111.653 34.2357 112.068 33.2119 112.898 32.3818C113.673 31.5518 114.614 30.8877 115.721 30.3896C116.883 29.8363 118.073 29.4489 119.29 29.2275C120.563 29.0062 121.67 28.8402 122.61 28.7295V27.4014C122.61 24.6898 122.859 21.7845 123.357 18.6855C123.855 15.5866 124.741 12.709 126.014 10.0527C127.286 7.39648 129.03 5.21061 131.243 3.49512C133.457 1.72428 136.279 0.838867 139.71 0.838867C141.868 0.838867 143.722 1.30924 145.271 2.25C146.821 3.13542 148.094 4.3252 149.09 5.81934C150.086 7.25814 150.805 8.91829 151.248 10.7998C151.691 12.626 151.912 14.4798 151.912 16.3613ZM183.621 16.3613C183.621 17.4128 183.51 18.4365 183.289 19.4326C183.123 20.3734 182.791 21.2035 182.293 21.9229C181.795 22.6423 181.131 23.2233 180.301 23.666C179.471 24.0534 178.447 24.2471 177.229 24.2471C175.846 24.2471 174.822 23.9704 174.158 23.417C173.494 22.8636 173.024 22.1995 172.747 21.4248C172.526 20.5947 172.415 19.7093 172.415 18.7686C172.415 17.8278 172.36 16.9701 172.249 16.1953C172.194 15.3652 172 14.6735 171.668 14.1201C171.336 13.5667 170.727 13.29 169.842 13.29C169.012 13.29 168.32 13.9264 167.767 15.1992C167.269 16.472 166.854 17.9385 166.521 19.5986C166.189 21.2588 165.968 22.8913 165.857 24.4961C165.747 26.0456 165.691 27.097 165.691 27.6504C166.411 27.5397 167.103 27.4567 167.767 27.4014C168.431 27.2907 169.15 27.2354 169.925 27.2354C170.7 27.2354 171.502 27.3184 172.332 27.4844C173.162 27.6504 173.937 27.9271 174.656 28.3145C175.376 28.6465 175.957 29.1445 176.399 29.8086C176.842 30.4173 177.063 31.1921 177.063 32.1328C177.063 33.1289 176.621 34.0143 175.735 34.7891C174.905 35.5638 173.882 36.2279 172.664 36.7812C171.502 37.2793 170.312 37.6943 169.095 38.0264C167.877 38.3584 166.909 38.5798 166.189 38.6904C166.355 42.5088 166.438 46.3548 166.438 50.2285C166.438 53.8809 166.355 57.4779 166.189 61.0195C166.079 62.735 165.47 64.1462 164.363 65.2529C163.312 66.3597 161.928 66.9131 160.213 66.9131C159.272 66.9131 158.47 66.7194 157.806 66.332C157.142 66 156.588 65.5296 156.146 64.9209C155.703 64.3122 155.343 63.6204 155.066 62.8457C154.845 62.071 154.707 61.2686 154.651 60.4385C154.375 57.1182 154.153 53.7979 153.987 50.4775C153.821 47.1019 153.766 43.7262 153.821 40.3506C153.434 40.4059 153.047 40.4336 152.659 40.4336C152.327 40.4336 151.967 40.4336 151.58 40.4336C150.916 40.4336 150.114 40.3506 149.173 40.1846C148.232 40.0186 147.319 39.7419 146.434 39.3545C145.604 38.9118 144.884 38.3861 144.275 37.7773C143.667 37.1686 143.362 36.3939 143.362 35.4531C143.362 34.2357 143.777 33.2119 144.607 32.3818C145.382 31.5518 146.323 30.8877 147.43 30.3896C148.592 29.8363 149.782 29.4489 150.999 29.2275C152.272 29.0062 153.379 28.8402 154.319 28.7295V27.4014C154.319 24.6898 154.568 21.7845 155.066 18.6855C155.564 15.5866 156.45 12.709 157.723 10.0527C158.995 7.39648 160.739 5.21061 162.952 3.49512C165.166 1.72428 167.988 0.838867 171.419 0.838867C173.577 0.838867 175.431 1.30924 176.98 2.25C178.53 3.13542 179.803 4.3252 180.799 5.81934C181.795 7.25814 182.514 8.91829 182.957 10.7998C183.4 12.626 183.621 14.4798 183.621 16.3613ZM196.072 15.6973C196.072 18.6855 195.934 21.7015 195.657 24.7451C195.436 27.7334 195.325 30.7493 195.325 33.793C195.325 37.722 195.436 41.651 195.657 45.5801C195.934 49.5091 196.072 53.4658 196.072 57.4502C196.072 58.4463 196.017 59.5807 195.906 60.8535C195.796 62.071 195.519 63.2054 195.076 64.2568C194.689 65.3083 194.08 66.1937 193.25 66.9131C192.42 67.6325 191.313 67.9922 189.93 67.9922C188.602 67.9922 187.439 67.3281 186.443 66C185.503 64.7272 184.7 63.0947 184.036 61.1025C183.427 59.055 182.902 56.7861 182.459 54.2959C182.072 51.8057 181.767 49.3984 181.546 47.0742C181.38 44.6947 181.242 42.5365 181.131 40.5996C181.076 38.6074 181.048 37.141 181.048 36.2002C181.048 35.1488 181.076 33.627 181.131 31.6348C181.242 29.6426 181.435 27.4844 181.712 25.1602C181.989 22.8359 182.348 20.484 182.791 18.1045C183.289 15.6696 183.925 13.4837 184.7 11.5469C185.475 9.55469 186.388 7.94987 187.439 6.73242C188.546 5.45964 189.847 4.82324 191.341 4.82324C192.558 4.82324 193.471 5.23828 194.08 6.06836C194.744 6.8431 195.215 7.81152 195.491 8.97363C195.768 10.0804 195.934 11.2702 195.989 12.543C196.045 13.7604 196.072 14.8118 196.072 15.6973ZM239.651 58.1973C239.651 59.304 239.181 60.2725 238.24 61.1025C237.355 61.9326 236.193 62.6797 234.754 63.3438C233.37 64.0078 231.766 64.5612 229.939 65.0039C228.169 65.4466 226.398 65.8063 224.627 66.083C222.911 66.3597 221.279 66.5534 219.729 66.6641C218.18 66.8301 216.935 66.9131 215.994 66.9131C215.053 66.9131 213.725 66.8854 212.01 66.8301C210.35 66.7747 208.689 66.5534 207.029 66.166C205.369 65.834 203.93 65.2806 202.713 64.5059C201.495 63.6758 200.887 62.5413 200.887 61.1025C200.887 59.9958 201.274 58.64 202.049 57.0352C202.824 55.4303 203.82 53.6872 205.037 51.8057C206.255 49.9242 207.61 48.015 209.104 46.0781C210.599 44.0859 212.065 42.1768 213.504 40.3506C214.943 38.5244 216.299 36.8643 217.571 35.3701C218.844 33.8206 219.84 32.5479 220.56 31.5518C219.785 31.7178 218.789 31.9668 217.571 32.2988C216.409 32.5755 215.192 32.8522 213.919 33.1289C212.646 33.4056 211.401 33.6546 210.184 33.876C209.021 34.042 208.025 34.125 207.195 34.125C206.531 34.125 205.784 34.0143 204.954 33.793C204.124 33.5163 203.322 33.1566 202.547 32.7139C201.827 32.2712 201.191 31.7454 200.638 31.1367C200.14 30.528 199.891 29.8363 199.891 29.0615C199.891 28.0654 200.333 27.1523 201.219 26.3223C202.104 25.4368 203.266 24.6621 204.705 23.998C206.144 23.2786 207.749 22.6699 209.52 22.1719C211.29 21.6185 213.034 21.1758 214.749 20.8438C216.465 20.4564 218.097 20.1797 219.646 20.0137C221.196 19.8477 222.441 19.7646 223.382 19.7646C224.433 19.7646 225.706 19.8753 227.2 20.0967C228.694 20.318 230.133 20.7054 231.517 21.2588C232.955 21.8122 234.173 22.5592 235.169 23.5C236.165 24.4408 236.663 25.6305 236.663 27.0693C236.663 27.512 236.608 27.9271 236.497 28.3145C236.442 28.6465 236.359 29.0339 236.248 29.4766C236.137 29.8639 235.639 30.7493 234.754 32.1328C233.924 33.4609 232.872 35.0658 231.6 36.9473C230.382 38.7734 229.026 40.7656 227.532 42.9238C226.093 45.0267 224.71 47.0189 223.382 48.9004C222.054 50.7819 220.892 52.4421 219.896 53.8809C218.899 55.3197 218.235 56.2881 217.903 56.7861C220.172 56.1774 222.469 55.6794 224.793 55.292C227.173 54.8493 229.524 54.6279 231.849 54.6279C232.402 54.6279 233.121 54.6556 234.007 54.7109C234.892 54.7663 235.75 54.9323 236.58 55.209C237.41 55.4303 238.13 55.79 238.738 56.2881C239.347 56.7308 239.651 57.3672 239.651 58.1973Z" fill="#18181B" fill-opacity="0.9"/>
</svg>
